#N canvas 822 220 768 527 12;
#X obj 18 236 oscparse;
#X floatatom 18 314 5 0 0 0 - - - 0;
#X floatatom 62 314 5 0 0 0 - - - 0;
#X obj 18 339 bng 19 250 50 0 empty empty empty 0 -10 0 12 #fcfcfc #000000 #000000;
#X obj 62 339 bng 19 250 50 0 empty empty empty 0 -10 0 12 #fcfcfc #000000 #000000;
#X obj 18 210 netreceive -u -b;
#X obj 18 158 loadbang;
#X obj 18 262 list trim;
#X obj 18 288 route b1 b2, f 13;
#X msg 645 34 \; pd dsp 1;
#X obj 645 10 loadbang;
#X text 15 52 Creation date: 2023-11-03, f 58;
#X text 15 14 Title: OSC Data Exchange Example, f 58;
#X obj 18 392 dac~, f 7;
#X text 15 33 Author: Patricio Isaias (https://linktr.ee/patricioisaias);
#X text 15 90 LICENSE: MIT, f 58;
#X msg 645 75 \; pd dsp 0;
#X msg 18 184 listen 9600;
#X text 82 236 OSC --> Pd messages;
#X text 90 262 trim the "list" selector off;
#X text 17 132 Receive ball collision data from Processing;
#X text 15 71 Description: Receive and send data using the Open Sound Control (OSC) protocol, f 80;
#X msg 419 339 connect localhost 9700;
#X msg 430 365 disconnect;
#X obj 419 314 loadbang;
#X obj 396 261 list prepend send;
#X obj 396 287 list trim;
#X obj 396 395 netsend -u -b;
#X obj 396 419 tgl 19 0 empty empty empty 0 -10 0 12 #fcfcfc #000000 #000000 0 1;
#X text 103 183 <-- set port number (0 to close);
#X text 137 210 receive OSC data;
#X text 115 287 route messages (tags);
#X text 495 395 send OSC data;
#X text 75 365 make some sounds!;
#N canvas 52 56 776 354 blip 0;
#X obj 97 58 vline~;
#X obj 16 82 *~, f 12;
#X obj 97 10 inlet;
#X obj 16 132 outlet~;
#X obj 277 11 inlet;
#X obj 196 134 outlet~;
#X obj 16 58 osc~ 880;
#X obj 277 62 vline~;
#X obj 196 86 *~, f 12;
#X obj 196 62 osc~ 1100;
#X obj 196 111 *~ 0.7;
#X obj 16 106 *~ 0.7;
#X msg 277 38 1 1 \, 0 2 10;
#X msg 97 34 1 1 \, 0 2 10;
#X connect 0 0 1 1;
#X connect 1 0 11 0;
#X connect 2 0 13 0;
#X connect 4 0 12 0;
#X connect 6 0 1 0;
#X connect 7 0 8 1;
#X connect 8 0 10 0;
#X connect 9 0 8 0;
#X connect 10 0 5 0;
#X connect 11 0 3 0;
#X connect 12 0 7 0;
#X connect 13 0 0 0;
#X restore 18 366 pd blip;
#X floatatom 396 184 5 0 0 0 - - - 0;
#X text 14 423 *The -u flag sets UPD connection (default TCP);
#X text 14 441 *The -b flag sets binary connection (default FUDI);
#X obj 396 235 oscformat -f i /amp;
#X obj 396 209 i;
#X obj 399 158 hsl 162 19 0 255 0 0 empty empty empty -2 -10 0 12 #fcfcfc #000000 #000000 0 1;
#X text 567 158 values 0-255;
#X text 395 131 Send data to Processing to change the ball color;
#X text 423 209 float --> integer;
#X text 14 460 *The -f flag sets the format \, in this case i (integer);
#X connect 0 0 7 0;
#X connect 1 0 3 0;
#X connect 2 0 4 0;
#X connect 3 0 34 0;
#X connect 4 0 34 1;
#X connect 5 0 0 0;
#X connect 6 0 17 0;
#X connect 7 0 8 0;
#X connect 8 0 1 0;
#X connect 8 1 2 0;
#X connect 10 0 9 0;
#X connect 17 0 5 0;
#X connect 22 0 27 0;
#X connect 23 0 27 0;
#X connect 24 0 22 0;
#X connect 25 0 26 0;
#X connect 26 0 27 0;
#X connect 27 0 28 0;
#X connect 34 0 13 0;
#X connect 34 1 13 1;
#X connect 35 0 39 0;
#X connect 38 0 25 0;
#X connect 39 0 38 0;
#X connect 40 0 35 0;
