#N canvas 179 118 604 477 12;
#X obj 18 225 oscparse;
#X floatatom 18 297 5 0 0 0 - - - 0;
#X floatatom 62 297 5 0 0 0 - - - 0;
#X obj 18 320 bng 19 250 50 0 empty empty empty 0 -10 0 12 #fcfcfc #000000 #000000;
#X obj 79 320 bng 19 250 50 0 empty empty empty 0 -10 0 12 #fcfcfc #000000 #000000;
#X obj 296 378 netsend -u -b;
#X msg 312 327 connect localhost 9700;
#X obj 312 303 loadbang;
#X floatatom 296 176 5 0 0 0 - - - 0;
#X msg 18 176 listen 9600;
#X obj 18 201 netreceive -u -b;
#X obj 18 151 loadbang;
#X obj 18 249 list trim;
#X obj 18 273 route b1 b2, f 13;
#X text 137 201 receive OSC;
#X text 90 249 cut "list" word;
#X text 82 225 OSC -> Pd messages;
#X text 115 272 route messages;
#X text 103 175 set port;
#X msg 493 172 \; pd dsp 1;
#X obj 493 148 loadbang;
#X text 16 131 RECEIVE DATA;
#X text 15 52 Creation date: 2023-11-03, f 58;
#X text 15 14 Title: OSC Data Exchange Example, f 58;
#X text 293 131 SEND DATA;
#X obj 299 151 hsl 162 19 0 255 0 0 empty empty empty -2 -10 0 12 #ffc7c6 #000000 #000000 0 1;
#X obj 18 369 dac~, f 9;
#N canvas 52 56 450 300 blip 0;
#X obj 97 58 vline~;
#X obj 16 82 *~, f 12;
#X obj 97 10 inlet;
#X obj 15 132 outlet~;
#X obj 16 106 *~ 0.5;
#X msg 97 34 1 5 \, 0 15 20;
#X obj 16 58 osc~ 2000;
#X connect 0 0 1 1;
#X connect 1 0 4 0;
#X connect 2 0 5 0;
#X connect 4 0 3 0;
#X connect 5 0 0 0;
#X connect 6 0 1 0;
#X restore 18 345 pd blip;
#N canvas 52 56 450 300 blip 0;
#X obj 97 58 vline~;
#X obj 16 82 *~, f 12;
#X obj 97 10 inlet;
#X obj 15 132 outlet~;
#X obj 16 106 *~ 0.5;
#X msg 97 34 1 15 \, 0 15 20;
#X obj 16 58 osc~ 1000;
#X connect 0 0 1 1;
#X connect 1 0 4 0;
#X connect 2 0 5 0;
#X connect 4 0 3 0;
#X connect 5 0 0 0;
#X connect 6 0 1 0;
#X restore 79 344 pd blip;
#X text 20 408 *The -u and -b flags stand for UDP and Binary;
#X msg 322 352 disconnect;
#X text 134 344 make sounds!;
#X msg 296 199 \$1;
#X obj 304 251 oscparse;
#X obj 296 225 oscformat amp;
#X obj 333 280 print;
#X text 15 33 Author: Patricio Isaias (https://linktr.ee/patricioisaias);
#X text 15 71 Description: Send and receive data using the Open Sound Control (OSC) protocol, f 80;
#X text 15 90 LICENSE: MIT, f 58;
#X connect 0 0 12 0;
#X connect 1 0 3 0;
#X connect 2 0 4 0;
#X connect 3 0 27 0;
#X connect 4 0 28 0;
#X connect 6 0 5 0;
#X connect 7 0 6 0;
#X connect 8 0 32 0;
#X connect 9 0 10 0;
#X connect 10 0 0 0;
#X connect 11 0 9 0;
#X connect 12 0 13 0;
#X connect 13 0 1 0;
#X connect 13 1 2 0;
#X connect 20 0 19 0;
#X connect 25 0 8 0;
#X connect 27 0 26 0;
#X connect 28 0 26 1;
#X connect 30 0 5 0;
#X connect 32 0 34 0;
#X connect 33 0 35 0;
#X connect 34 0 5 0;
#X connect 34 0 33 0;
