#N canvas 1116 196 447 344 12;
#X obj 19 130 oscparse;
#X obj 19 154 route /b1 /b2;
#X floatatom 19 178 5 0 0 0 - - - 0;
#X floatatom 63 178 5 0 0 0 - - - 0;
#X obj 19 201 bng 19 250 50 0 empty empty empty 0 -10 0 12 #fcfcfc #000000 #000000;
#X obj 63 201 bng 19 250 50 0 empty empty empty 0 -10 0 12 #fcfcfc #000000 #000000;
#X obj 19 106 netreceive -u -b 9600;
#X obj 200 212 netsend -u -b;
#X msg 215 183 connect localhost 9700;
#X obj 215 159 loadbang;
#X floatatom 199 82 5 0 0 0 - - - 0;
#X text 16 21 OSC Data Exchange Example Author: Patricio Isaias Creation date: 2023-11-03 Description: Receive and send OSC messages via UDP binary;
#X obj 200 130 oscformat amp;
#X msg 199 105 amp \$1;
#X obj 68 285 print;
#X connect 0 0 1 0;
#X connect 1 0 2 0;
#X connect 1 1 3 0;
#X connect 2 0 4 0;
#X connect 3 0 5 0;
#X connect 6 0 0 0;
#X connect 8 0 7 0;
#X connect 9 0 8 0;
#X connect 10 0 13 0;
#X connect 12 0 7 0;
#X connect 13 0 12 0;
